<svg width="1080" height="1080" viewBox="0 0 1080 1080" fill="none" xmlns="http://www.w3.org/2000/svg">
<path d="M38.5272 875.628C41.3671 875.34 54.4585 876.411 59.7882 877.914C64.4832 879.239 68.5993 883.568 70.5348 886.397C76.234 894.725 80.3062 905.115 78.1967 915.256C75.0828 930.226 64.3775 939.036 50.1694 943.221C39.2823 946.428 27.1497 946.707 18.394 938.748C3.30421 925.032 7.49594 899.441 19.4554 885.104C24.1217 879.511 31.2602 876.366 38.5272 875.628Z" fill="#A4A4A4"/>
<path fill-rule="evenodd" clip-rule="evenodd" d="M49.0701 867.461C53.387 867.883 58.6721 868.581 62.1493 869.562C66.1415 870.688 69.4529 872.935 71.8722 875.02C74.3341 877.143 76.3421 879.504 77.7074 881.499C84.0086 890.708 89.5046 903.554 86.7031 917.022C82.7654 935.952 69.0013 946.722 52.6266 951.546C40.6788 955.065 24.6776 956.194 12.5469 945.167C2.53521 936.067 -0.66829 923.357 0.112136 911.585C0.887914 899.884 5.60537 888.15 12.781 879.548C19.2031 871.85 28.6368 867.909 37.6482 866.994C40.0793 866.747 44.9382 867.058 49.0701 867.461ZM39.4281 884.262C39.4107 884.263 39.4035 884.263 39.4062 884.263C33.8837 884.824 29.0402 887.172 26.1297 890.66C21.3459 896.395 17.9878 904.625 17.4503 912.732C16.9175 920.77 19.163 927.713 24.2411 932.329C29.6217 937.22 37.8858 937.791 47.7121 934.897C59.7538 931.349 67.4001 924.501 69.6904 913.49C71.1078 906.676 68.4594 898.743 63.3623 891.294C62.7921 890.461 61.7742 889.243 60.5205 888.162C59.2241 887.045 58.13 886.465 57.4272 886.267C55.5747 885.744 51.6492 885.154 47.378 884.737C45.3482 884.539 43.4216 884.396 41.8744 884.321C40.3222 884.245 39.5639 884.26 39.4281 884.262Z" fill="black"/>
<path d="M53.7917 859.505C50.643 863.086 45.4886 867.439 43.9352 872.094C67.2611 878.16 75.0624 884.529 80.2636 900.789C84.4566 896.833 88.9888 893.371 93.5935 889.911C102.554 883.179 111.194 876.158 119.643 868.789C133.584 856.629 147.865 844.847 161.791 832.662C168.415 826.867 175.414 820.282 180.777 813.251C182.181 811.411 189.458 805.644 188.79 804.308C187.453 801.638 182.754 797.006 181.53 795.158C178.785 791.015 175.019 787.073 171.212 783.897C168.18 781.368 165.337 778.612 162.385 775.995C160.524 774.346 157.857 771.815 155.316 771.452C150.027 770.26 143.001 779.994 138.37 783.665C126.259 793.269 114.302 803.029 102.371 812.852C90.0992 822.956 78.326 833.04 67.6379 844.829C63.1162 849.817 58.242 854.444 53.7917 859.505Z" fill="#D9D9D9"/>
<path fill-rule="evenodd" clip-rule="evenodd" d="M148.413 786.135C147.082 787.484 145.411 789.163 143.772 790.463C131.722 800.018 119.811 809.74 107.896 819.55C95.672 829.614 84.3145 839.364 74.0775 850.655C71.9204 853.035 69.6922 855.33 67.583 857.504C67.3633 857.73 67.1448 857.955 66.9279 858.179C64.586 860.593 62.389 862.879 60.3193 865.233C59.6797 865.96 58.9861 866.697 58.3232 867.39C64.612 869.661 69.9052 872.331 74.3044 875.826C78.2473 878.959 81.2262 882.551 83.5897 886.616C85.202 885.362 86.8039 884.153 88.3714 882.975C97.1559 876.375 105.632 869.488 113.929 862.251C120.753 856.299 127.651 850.442 134.499 844.629L135.096 844.121C142.156 838.128 149.16 832.177 156.067 826.133C162.594 820.422 169.052 814.303 173.866 807.991C174.39 807.305 174.976 806.694 175.365 806.3C175.806 805.853 176.291 805.388 176.749 804.956C177.071 804.652 177.374 804.369 177.667 804.096C177.658 804.087 177.65 804.078 177.642 804.068C177.199 803.563 176.739 803.038 176.406 802.651C175.808 801.957 174.935 800.93 174.284 799.948C172.107 796.661 168.964 793.329 165.643 790.559C163.626 788.876 161.471 786.904 159.523 785.12C158.478 784.164 157.492 783.261 156.619 782.487C156.444 782.332 156.279 782.185 156.121 782.045C155.432 781.431 154.896 780.954 154.366 780.54C153.866 780.909 153.237 781.428 152.466 782.133C151.349 783.156 150.242 784.28 149.006 785.534C148.812 785.731 148.614 785.931 148.413 786.135ZM155.451 779.863C155.451 779.864 155.431 779.873 155.392 779.887C155.432 779.868 155.451 779.862 155.451 779.863ZM181.294 800.51C181.294 800.51 181.284 800.524 181.262 800.552C181.281 800.525 181.293 800.51 181.294 800.51ZM156.884 762.914C152.756 762.1 149.194 763.489 146.933 764.719C144.533 766.025 142.401 767.803 140.726 769.336C139.25 770.688 137.793 772.167 136.582 773.398C136.396 773.586 136.216 773.77 136.042 773.945C134.589 775.417 133.645 776.331 132.969 776.868C120.797 786.52 108.792 796.319 96.8449 806.155C84.5264 816.297 72.3375 826.717 61.1982 839.003C59.2509 841.151 57.2294 843.234 55.0871 845.442C54.8753 845.66 54.6623 845.88 54.4481 846.1C52.11 848.511 49.6447 851.07 47.2642 853.777C46.6377 854.49 45.879 855.277 44.8878 856.304C43.9531 857.272 42.8392 858.426 41.7594 859.645C39.7235 861.942 37.0503 865.282 35.693 869.35L32.7548 878.155L41.7464 880.493C53.1451 883.458 59.4517 886.204 63.4879 889.411C67.1902 892.353 69.693 896.257 71.9878 903.431L76.1907 916.57L86.2291 907.099C90.0278 903.515 94.202 900.314 98.8155 896.848C107.953 889.983 116.757 882.828 125.357 875.326C132.091 869.453 138.912 863.662 145.784 857.828L146.349 857.348C153.397 851.364 160.497 845.332 167.516 839.191C174.224 833.322 181.752 826.284 187.659 818.549C187.638 818.576 187.627 818.591 187.628 818.592C187.634 818.598 187.899 818.313 188.682 817.574C188.927 817.343 189.23 817.059 189.563 816.749C190.202 816.152 190.948 815.456 191.587 814.842C192.568 813.898 193.803 812.67 194.785 811.453C195.245 810.882 195.971 809.924 196.539 808.731L196.543 808.722C196.856 808.067 198.577 804.456 196.56 800.427C195.844 798.995 194.887 797.674 194.143 796.711C193.341 795.672 192.46 794.636 191.682 793.74C191.248 793.239 190.905 792.849 190.59 792.491C190.246 792.099 189.936 791.747 189.579 791.332C189.092 790.767 188.868 790.483 188.796 790.393C188.769 790.359 188.764 790.352 188.775 790.368C185.463 785.369 181.075 780.817 176.781 777.235C174.996 775.747 173.466 774.341 171.787 772.799C170.678 771.781 169.505 770.703 168.151 769.503C168.053 769.416 167.94 769.315 167.815 769.203C166.998 768.472 165.647 767.262 164.215 766.222C162.716 765.133 160.136 763.464 156.884 762.914Z" fill="black"/>
<path d="M56.5476 689.174C54.8669 687.721 50.4486 684.137 48.613 681.642C39.6927 662.929 37.1331 642.136 30.1385 622.727C26.2419 611.914 19.8173 598.459 17.0329 587.333C17.0329 584.662 22.6183 580.366 24.3768 578.428C27.1276 575.395 29.7729 572.309 32.9476 569.714C35.6158 567.533 49.4092 558.596 50.696 560.167C51.9829 561.738 52.4899 563.984 53.1611 565.85C54.917 570.731 56.8176 575.49 58.8876 580.246C61.9348 587.247 65.7949 594.634 68.141 601.878C69.9935 607.598 72.3313 613.136 74.2847 618.812L74.331 618.947C75.3881 622.02 77.3426 627.701 79.3665 629.723C86.5304 634.375 98.3824 644.989 104.965 650.484C118.495 661.778 131.884 673.227 145.43 684.504C169.734 704.736 192.637 726.326 216.386 747.165C234.556 763.108 252.581 779.032 270.351 795.429C277.96 802.45 285.798 809.387 292.727 817.099C295.296 819.959 301.522 826.492 305.744 827.675C324.245 830.498 338.106 833.198 354.012 838.087C367.119 842.116 384.871 850.725 397.473 856.12C399.006 856.776 393.972 862.253 391.86 864.606C387.868 869.054 383.733 873.358 379.724 877.79C376.547 881.303 366.561 893.523 364.378 893.523C355.868 893.769 347.828 891.748 339.548 891.748C319.461 891.748 297.725 891.748 277.414 885.36C272.997 883.087 269.948 878.576 266.36 875.422C256.022 866.334 245.911 856.793 235.885 847.385C225.888 838.003 215.813 828.595 206.358 818.676C196.066 807.882 185.001 797.535 175.132 786.38C165.598 775.601 154.483 765.968 144.223 755.857C136.031 747.785 126.667 740.03 117.222 733.459C107.105 726.421 96.5441 720.116 86.6675 712.716C80.5036 708.098 74.4452 703.389 68.3508 698.677C64.349 695.584 60.3757 692.483 56.5476 689.174Z" fill="#A4A4A4"/>
<path fill-rule="evenodd" clip-rule="evenodd" d="M45.9704 571.473C42.4496 573.58 39.2107 575.809 38.4492 576.431C36.2616 578.219 34.401 580.282 32.0111 582.932C31.6271 583.357 31.2294 583.798 30.8146 584.256C30.1155 585.026 29.1893 585.887 28.5372 586.493C28.4928 586.534 28.4498 586.574 28.4081 586.613C27.6645 587.305 26.9931 587.931 26.3839 588.545C27.6291 592.656 29.3348 597.17 31.237 601.928C31.9164 603.628 32.6288 605.376 33.3471 607.14C35.0983 611.438 36.8845 615.823 38.313 619.787C41.3298 628.158 43.5727 636.82 45.6954 645.016C46.1519 646.779 46.6028 648.521 47.0547 650.233C49.573 659.776 52.1773 668.68 56.0268 676.994C56.518 677.536 57.3331 678.342 58.4531 679.35C59.4481 680.245 60.3335 680.996 61.1309 681.671C61.5182 681.999 61.8847 682.31 62.2329 682.611C65.862 685.748 69.6655 688.719 73.6682 691.814C74.4484 692.417 75.2265 693.019 76.0029 693.619C81.3191 697.732 86.5599 701.787 91.8804 705.773C97.7108 710.141 103.39 713.855 109.315 717.73C113.441 720.429 117.687 723.206 122.187 726.336C132.031 733.185 141.776 741.255 150.324 749.679C153.406 752.715 156.705 755.832 160.085 759.027C167.343 765.884 174.977 773.098 181.643 780.632C187.655 787.429 193.876 793.669 200.289 800.101C204.334 804.159 208.456 808.293 212.649 812.691C221.553 822.03 231.039 830.93 240.686 839.982L241.834 841.059C242.567 841.747 243.299 842.434 244.031 843.122C253.353 851.873 262.635 860.586 272.1 868.907C273.662 870.28 275.351 872.076 276.628 873.433C277.076 873.909 277.474 874.332 277.797 874.663C279.107 876.005 280.063 876.829 280.872 877.344C299.461 883.005 319.534 883.069 339.548 883.069C343.955 883.069 348.259 883.57 352.018 884.007C352.306 884.04 352.592 884.074 352.874 884.106C356.073 884.476 358.931 884.779 361.707 884.849C362.669 883.924 363.88 882.647 365.237 881.149C366.747 879.483 368.305 877.692 369.717 876.058C369.954 875.784 370.191 875.51 370.424 875.239C371.523 873.966 372.551 872.775 373.278 871.971C375.203 869.843 377.153 867.747 379.055 865.704L379.435 865.295C381.139 863.463 382.805 861.67 384.439 859.868C383.76 859.565 383.077 859.259 382.391 858.953C371.805 854.217 360.518 849.167 351.457 846.382C336.123 841.669 322.727 839.046 304.433 836.254L303.909 836.175L303.399 836.032C299.155 834.843 295.218 831.613 292.84 829.499C290.089 827.054 287.646 824.438 286.261 822.896C280.71 816.718 274.561 811.079 268.089 805.143C266.888 804.042 265.677 802.931 264.456 801.805C246.771 785.486 228.815 769.622 210.652 753.685C201.77 745.891 193.111 738.091 184.505 730.338C169.76 717.054 155.169 703.909 139.868 691.171C132.822 685.306 125.617 679.223 118.439 673.163C112.024 667.747 105.631 662.35 99.3942 657.144C97.5983 655.644 95.557 653.897 93.4027 652.052C86.9832 646.556 79.5598 640.2 74.6316 637L73.8675 636.504L73.2231 635.86C70.8766 633.516 69.3321 630.106 68.4883 628.119C67.4945 625.779 66.6601 623.353 66.1408 621.844L66.0685 621.634C66.0685 621.634 66.0686 621.634 66.0685 621.634C65.2527 619.263 64.3656 616.916 63.4246 614.426C63.2992 614.095 63.1728 613.76 63.0456 613.423C61.984 610.61 60.8709 607.625 59.8748 604.55C58.407 600.017 56.4015 595.69 54.2069 590.955C53.1425 588.658 52.0336 586.265 50.92 583.707C49.1596 579.662 47.5138 575.606 45.9704 571.473ZM51.3319 551.372C52.7437 551.539 55.3856 552.187 57.4202 554.671C58.9481 556.537 59.7955 558.52 60.2958 559.855C60.5551 560.546 60.7733 561.213 60.9355 561.711C60.9511 561.759 60.9662 561.805 60.9808 561.85C61.1355 562.325 61.2349 562.63 61.3372 562.915C63.0255 567.608 64.8556 572.191 66.8552 576.785C67.6163 578.534 68.5117 580.47 69.4613 582.523C71.8612 587.711 74.6071 593.648 76.4073 599.206C77.2636 601.851 78.2457 604.494 79.3045 607.299C79.4277 607.626 79.5522 607.955 79.6777 608.287C80.6092 610.751 81.5942 613.356 82.5009 615.991L82.5604 616.164C83.0979 617.726 83.7533 619.618 84.4842 621.339C84.8398 622.176 85.1612 622.848 85.4331 623.338C91.3809 627.437 99.5518 634.44 105.617 639.638C107.504 641.255 109.187 642.698 110.536 643.824C117.105 649.307 123.454 654.668 129.78 660.011C136.787 665.928 143.767 671.822 150.992 677.836C166.502 690.748 181.599 704.346 196.557 717.818C205.106 725.518 213.61 733.177 222.119 740.644C240.297 756.594 258.392 772.578 276.247 789.054C277.381 790.101 278.536 791.159 279.703 792.229C286.164 798.15 293.029 804.442 299.193 811.302C300.377 812.62 302.331 814.701 304.391 816.533C305.422 817.448 306.365 818.2 307.161 818.739C307.533 818.991 307.8 819.145 307.966 819.235C326.229 822.041 340.356 824.809 356.567 829.792C366.737 832.918 379.688 838.713 390.555 843.576C394.319 845.26 397.833 846.832 400.895 848.143C402.473 848.819 404.021 850.007 405.103 851.78C406.136 853.472 406.416 855.156 406.444 856.378C406.494 858.558 405.77 860.269 405.463 860.952C404.742 862.553 403.672 864.031 402.945 864.986C401.508 866.87 399.682 868.897 398.64 870.054C398.527 870.18 398.422 870.296 398.329 870.4C396.274 872.689 394.193 874.93 392.162 877.112L391.803 877.498C389.883 879.562 388.011 881.574 386.17 883.609C385.593 884.247 384.744 885.23 383.65 886.498C383.402 886.785 383.142 887.087 382.869 887.402C381.447 889.048 379.776 890.97 378.119 892.798C376.492 894.593 374.739 896.454 373.166 897.915C372.397 898.629 371.479 899.429 370.513 900.103C370.032 900.439 369.359 900.872 368.55 901.249C367.891 901.557 366.456 902.159 364.578 902.2C359.64 902.338 354.949 901.819 350.879 901.35C350.671 901.325 350.464 901.301 350.258 901.278C346.27 900.816 342.91 900.427 339.548 900.427H338.981C319.254 900.428 296.394 900.429 274.804 893.638L274.095 893.415L273.435 893.075C269.941 891.277 267.28 888.752 265.356 886.78C264.507 885.911 263.839 885.198 263.258 884.578C262.279 883.533 261.549 882.754 260.621 881.938C250.932 873.421 241.449 864.518 232.17 855.806C231.424 855.106 230.68 854.408 229.937 853.71C229.515 853.315 229.094 852.919 228.671 852.523C219.117 843.559 209.313 834.36 200.066 824.662C196.458 820.878 192.573 816.975 188.607 812.99C181.86 806.212 174.877 799.197 168.622 792.127C162.461 785.162 155.826 778.9 148.902 772.363C145.376 769.035 141.774 765.635 138.121 762.036C130.287 754.315 121.303 746.875 112.256 740.581C108.67 738.085 104.724 735.496 100.664 732.83C94.2277 728.605 87.5018 724.19 81.4547 719.659C76.0187 715.586 70.6634 711.443 65.3565 707.338C64.5811 706.738 63.8068 706.139 63.0334 705.541C59.0325 702.448 54.8894 699.218 50.8624 695.736C50.7031 695.599 50.4638 695.396 50.1685 695.145C49.3224 694.428 48.0172 693.321 46.8237 692.247C45.2717 690.851 43.1073 688.814 41.6118 686.781L41.1235 686.117L40.7689 685.373C35.9366 675.236 32.9 664.69 30.2525 654.658C29.7565 652.778 29.2756 650.923 28.8005 649.091C26.6844 640.93 24.6826 633.211 21.9639 625.666C20.6614 622.052 19.0942 618.206 17.4083 614.068C16.6581 612.227 15.8845 610.328 15.1002 608.366C12.6462 602.228 10.1501 595.615 8.60427 589.438L8.34487 588.401V587.333C8.34487 583.963 9.95344 581.374 10.7515 580.203C11.7265 578.772 12.8904 577.501 13.8351 576.536C14.7806 575.571 15.7631 574.657 16.5021 573.97L16.5667 573.91C16.9639 573.54 17.2737 573.251 17.536 573C17.6627 572.878 17.7599 572.783 17.8336 572.708C17.9054 572.636 17.9367 572.602 17.9389 572.6C18.2747 572.229 18.6228 571.842 18.9831 571.441C21.3106 568.85 24.1464 565.694 27.446 562.997C29.2977 561.483 33.8643 558.438 37.9437 556.048C40.0139 554.835 42.3088 553.581 44.3236 552.716C45.2688 552.31 46.595 551.794 48.0138 551.518C48.703 551.384 49.907 551.204 51.3319 551.372Z" fill="black"/>
<path d="M187.16 683.21C183.367 686.999 168.724 697.635 168.072 703.498L264.309 788.953C265.646 791.623 275.307 779.679 278.564 777.049C295.295 763.536 311.419 749.3 328.116 735.748C375.367 697.397 426.75 663.606 476.47 628.547C583.21 553.279 697.282 487.665 797.903 403.717C857.53 353.971 916.159 303.182 975.847 253.494C996.411 236.374 1017.13 219.289 1037.26 201.665C1046.61 193.471 1070.96 174.746 1070.96 172.075C1070.96 130.999 1072.3 49.9013 1069.74 49.2268C1068.29 46.5633 984.578 54.4777 942.406 54.4777C936.699 55.9029 926.593 62.7509 921.43 66.3215C901.858 79.8575 878.97 90.5086 861.541 106.914C838.619 128.491 813.511 148.095 789.29 168.259C765.422 188.128 742.444 209.387 719.166 230.009C685.31 260 647.774 286.588 611.853 314.029C541.192 368.007 473.485 425.595 407.36 485.004C350.277 536.289 289.167 583.55 234.686 637.556C219.079 653.026 202.694 667.693 187.16 683.21Z" fill="#D9D9D9"/>
<path fill-rule="evenodd" clip-rule="evenodd" d="M935.91 67.203C936.015 68.5498 936.438 69.8918 937.205 71.1166C937.687 71.8866 937.876 72.5952 938.512 75.774C940.104 83.7261 941.317 91.6867 942.564 99.8705C942.987 102.646 943.413 105.447 943.86 108.282C944.2 110.44 944.532 112.708 944.874 115.038C945.7 120.675 946.579 126.672 947.745 132.331C948.875 137.813 950.765 143.501 952.372 148.3C950.818 149.701 949.135 151.313 947.537 152.882C944.649 155.717 941.446 159.012 939.887 160.616C939.422 161.094 939.103 161.422 938.982 161.543C938.295 162.229 937.614 162.911 936.938 163.588C932.32 168.213 927.94 172.6 923.273 176.707C915.219 183.794 907.175 191.277 899.237 198.661C893.691 203.819 888.197 208.93 882.787 213.824C849.492 243.947 813.801 271.716 777.64 298.882C735.796 330.319 693.135 361.16 649.474 389.708C642.861 394.032 636.005 398.369 629.083 402.747C618.819 409.239 608.411 415.823 598.439 422.59C582.544 433.378 567.103 445.17 551.913 456.771C545.467 461.694 539.066 466.582 532.695 471.344C491.4 502.211 450.506 533.748 410.879 566.973C393.75 581.333 376.591 595.251 359.364 609.223C345.833 620.197 332.261 631.204 318.629 642.487C302.361 655.953 286.515 669.636 270.698 683.294C260.259 692.308 249.832 701.311 239.307 710.233C235.334 713.6 230.72 717.74 226.249 721.751C225.085 722.794 223.932 723.829 222.802 724.839C219.546 727.751 216.528 730.419 213.938 732.613L179.317 701.871C180.186 700.969 181.195 699.996 182.312 698.971C184.274 697.173 186.351 695.413 188.284 693.777L188.56 693.544C190.256 692.109 192.1 690.549 193.303 689.347C200.971 681.688 208.864 674.222 216.862 666.674L217.758 665.828C225.437 658.581 233.208 651.248 240.805 643.717C274.649 610.169 310.727 579.53 347.089 548.649C369.157 529.909 391.329 511.079 413.17 491.457C479.182 432.15 546.707 374.72 617.131 320.923C625.999 314.148 635.02 307.387 644.096 300.585C671.437 280.093 699.276 259.229 724.931 236.502C731.844 230.378 738.693 224.233 745.521 218.106C761.872 203.433 778.109 188.864 794.852 174.926C800.899 169.892 807.047 164.857 813.233 159.791C831.538 144.801 850.175 129.539 867.5 113.231C875.559 105.644 885.034 99.2487 895.258 92.919C898.172 91.1153 901.184 89.296 904.237 87.4513C911.636 82.9817 919.282 78.3631 926.375 73.4573C928.865 71.7352 932.371 69.3456 935.91 67.203ZM227.046 744.252L265.247 778.173C266.104 777.301 266.973 776.389 267.855 775.462C268.191 775.109 268.529 774.755 268.868 774.399C270.125 773.085 271.76 771.384 273.101 770.3C281.38 763.614 289.521 756.738 297.739 749.789L298.456 749.183C306.416 742.451 314.454 735.654 322.638 729.012C358.545 699.867 396.907 673.277 434.815 647.001C447.111 638.479 459.359 629.989 471.46 621.456C509.049 594.95 547.266 569.807 585.36 544.745C656.405 498.005 727.02 451.547 792.334 397.056C821.272 372.913 849.978 348.522 878.72 324.1L881.223 321.973C910.791 296.849 940.402 271.703 970.285 246.826C973.093 244.488 975.902 242.153 978.709 239.82C996.502 225.026 1014.24 210.283 1031.53 195.138C1034.52 192.517 1039.09 188.777 1043.81 184.917C1046.61 182.628 1049.45 180.296 1052.06 178.13C1055.67 175.123 1058.85 172.405 1061.09 170.32C1061.55 169.892 1061.95 169.516 1062.28 169.19C1062.28 168.688 1062.28 168.181 1062.28 167.67C1061.46 167.928 1060.58 168.067 1059.68 168.067C1055.58 168.067 1041.81 167.2 1026.01 166.206C1019.49 165.796 1012.62 165.363 1005.94 164.961C994.324 164.262 983.13 163.642 974.844 163.341C970.677 163.19 967.385 163.125 965.184 163.161C964.653 163.169 964.24 163.183 963.931 163.198C963.123 163.468 962.266 163.623 961.383 163.643C960.841 164.164 960.283 164.706 959.717 165.261C956.995 167.934 954.615 170.385 952.984 172.063C952.246 172.823 951.662 173.424 951.269 173.817C950.609 174.476 949.944 175.143 949.274 175.814C944.69 180.407 939.881 185.225 934.759 189.732C926.747 196.783 919.148 203.856 911.45 211.021C905.9 216.187 900.298 221.401 894.452 226.69C860.556 257.356 824.357 285.504 788.085 312.755C746.085 344.308 703.091 375.395 658.991 404.231C651.855 408.897 644.844 413.328 637.9 417.718C627.926 424.022 618.087 430.241 608.204 436.948C592.728 447.451 577.917 458.763 562.906 470.228C556.367 475.222 549.791 480.244 543.105 485.242C501.936 516.015 461.328 547.337 422.049 580.269C404.969 594.589 387.485 608.771 370.062 622.905C356.504 633.903 342.983 644.872 329.716 655.853C313.517 669.261 297.986 682.674 282.326 696.198C271.87 705.228 261.356 714.308 250.549 723.468C246.782 726.661 242.417 730.577 237.968 734.568C236.778 735.635 235.582 736.708 234.39 737.774C231.907 739.994 229.408 742.213 227.046 744.252ZM969.75 145.829C971.491 145.863 973.416 145.92 975.475 145.995C983.987 146.304 995.363 146.935 1006.98 147.635C1014.27 148.074 1021.6 148.535 1028.4 148.962C1043.61 149.919 1056.16 150.709 1059.68 150.709C1060.61 150.709 1061.51 150.855 1062.35 151.127C1062.37 146.53 1062.41 141.756 1062.44 136.896L1062.44 135.591C1062.53 122.197 1062.62 108.213 1062.62 95.4956C1062.63 82.7591 1062.56 71.3809 1062.33 63.1745C1062.26 60.9626 1062.19 59.0253 1062.11 57.3812C1060.27 57.4156 1058.07 57.4878 1055.53 57.5949C1046.93 57.9578 1035.11 58.6907 1021.89 59.5156L1020.77 59.5851C998.653 60.9651 972.814 62.5773 952.59 63.0319C954.369 66.314 955.002 69.5577 955.433 71.7674C955.474 71.9778 955.513 72.1788 955.551 72.3696C957.23 80.7531 958.528 89.2808 959.79 97.5667C960.202 100.269 960.609 102.946 961.025 105.583C961.429 108.147 961.795 110.645 962.153 113.095C962.945 118.502 963.703 123.68 964.764 128.83C965.699 133.363 967.32 138.212 969.017 143.289C969.15 143.685 969.283 144.082 969.416 144.481C969.565 144.928 969.676 145.378 969.75 145.829ZM1061.66 52.0191C1061.65 51.9744 1061.65 51.9663 1061.66 52.003C1061.66 52.008 1061.66 52.0133 1061.66 52.0191ZM963.246 163.246C963.251 163.245 963.255 163.245 963.26 163.244C963.199 163.253 963.19 163.252 963.246 163.246ZM261.724 781.435C261.595 781.523 261.607 781.501 261.741 781.423C261.735 781.427 261.729 781.431 261.724 781.435ZM1075.35 42.5832C1074.82 42.127 1074.34 41.8177 1074.01 41.6247C1073.17 41.1359 1072.42 40.8675 1071.96 40.7242C1071.04 40.4363 1070.17 40.3055 1069.62 40.2357C1068.43 40.087 1067.06 40.0304 1065.71 40.0097C1062.94 39.9672 1059.18 40.0673 1054.79 40.2523C1045.98 40.6243 1033.96 41.3705 1020.8 42.1913L1020.12 42.2338C993.772 43.8776 962.978 45.7987 942.406 45.7987H941.337L940.299 46.0579C936.045 47.1204 931.09 49.8401 927.233 52.1594C923.098 54.6465 919.091 57.3835 916.485 59.1857C909.851 63.7733 902.95 67.9416 895.76 72.2837C892.598 74.1935 889.38 76.137 886.105 78.1645C875.636 84.6458 864.952 91.779 855.583 100.598C838.735 116.457 820.77 131.17 802.593 146.056C796.318 151.196 790.017 156.356 783.728 161.592C766.725 175.746 750.106 190.658 733.652 205.422C726.879 211.499 720.134 217.551 713.402 223.515C688.329 245.727 661.307 265.98 634.115 286.361C624.932 293.244 615.729 300.142 606.575 307.134C535.678 361.293 467.787 419.041 401.55 478.551C380.505 497.458 358.661 516.018 336.706 534.672C299.888 565.955 262.758 597.502 228.566 631.395C221.123 638.774 213.491 645.976 205.769 653.264L204.929 654.057C196.949 661.588 188.883 669.215 181.017 677.073C180.389 677.7 179.117 678.786 177.053 680.532L177.04 680.543C175.143 682.148 172.813 684.12 170.564 686.182C168.338 688.222 165.964 690.555 164.043 692.928C162.41 694.943 159.898 698.396 159.437 702.54L158.941 707.002L257.977 794.943C258.855 795.916 259.99 796.766 261.396 797.334C263.574 798.214 265.563 798.078 266.804 797.84C269.045 797.412 270.774 796.283 271.561 795.744C273.424 794.465 275.35 792.632 276.854 791.131C278.105 789.884 279.411 788.512 280.546 787.32C280.856 786.994 281.153 786.682 281.433 786.389C282.115 785.676 282.698 785.074 283.189 784.588C283.432 784.347 283.629 784.158 283.786 784.013C283.863 783.942 283.923 783.888 283.966 783.849C283.99 783.829 284.006 783.815 284.016 783.807L284.026 783.798C292.479 776.971 300.765 769.972 308.966 763.038L309.636 762.471C317.633 755.709 325.551 749.012 333.595 742.484C368.943 713.793 406.539 687.733 444.314 661.548C456.708 652.957 469.121 644.352 481.48 635.637C518.079 609.83 555.815 584.994 593.701 560.061C665.322 512.925 737.475 465.44 803.472 410.379C832.472 386.184 861.232 361.747 889.958 337.339L892.481 335.195C922.056 310.065 951.603 284.973 981.409 260.161C984.204 257.834 987.005 255.505 989.81 253.173C1007.59 238.391 1025.51 223.493 1042.98 208.191C1045.79 205.731 1049.91 202.361 1054.41 198.681C1057.26 196.35 1060.26 193.895 1063.18 191.467C1066.82 188.435 1070.32 185.459 1072.93 183.026C1074.22 181.829 1075.47 180.606 1076.45 179.482C1076.92 178.935 1077.51 178.214 1078.03 177.391L1078.06 177.358C1078.36 176.871 1079.65 174.842 1079.65 172.075C1079.65 162.161 1079.73 149.899 1079.81 136.961L1079.82 135.701C1079.91 122.315 1079.99 108.281 1080 95.5049C1080.01 82.7481 1079.93 71.1582 1079.69 62.6855C1079.58 58.4758 1079.41 54.881 1079.18 52.2508C1079.07 50.9798 1078.92 49.6622 1078.68 48.5296C1078.58 48.0124 1078.38 47.1272 1077.99 46.188C1077.8 45.7279 1077.41 44.894 1076.73 44.0096C1076.45 43.65 1076 43.1211 1075.35 42.5832Z" fill="black"/>
<path d="M50.5825 418.23C46.2843 408.354 41.8605 384.659 41.2834 373.705C41.1416 371.025 66.4178 364.179 76.7482 358.586C103.048 344.344 129.653 331.416 156.52 318.36L156.522 318.359L158.644 317.328C197.331 298.527 235.454 275.591 270.105 250.06C305.51 223.973 334.566 193.067 365.276 161.907C375.469 151.565 384.469 140.397 393.238 128.85C394.578 127.084 401.314 121.336 406.064 123.468C412.292 124.713 419.807 133.741 424.405 137.434C439.172 149.295 456.11 158.847 472.44 168.378C509.822 190.196 552.77 204.017 594.098 216.234C635.549 228.487 677.225 240.226 719.796 248.01C745.871 252.778 773.291 258.388 799.896 258.388C801.947 258.388 804.712 257.671 805.644 259.533C808.766 287.609 809.004 311.965 806.886 340.263C803.845 380.893 804.544 421.7 801.756 462.37C799.967 488.464 795.757 514.31 792.777 540.273C790.217 562.58 787.154 584.769 782.645 606.772C774.049 648.712 768.142 691.785 755.581 732.852C749.439 752.93 743.886 773.176 738.009 793.329C734.44 805.565 729.585 817.403 725.824 829.589C722.437 840.562 719.554 851.66 715.435 862.391C704.746 890.234 692.692 916.685 678.238 942.984C670.732 956.641 659.315 967.298 651.263 980.559C641.407 991.996 628.54 1000.59 622.525 1012.6C617.229 1017.74 617.847 1031.97 609.159 1031.3C605.149 1030.63 605.149 1028.63 592.451 1021.95C577.08 1015.28 564.12 1011.15 548.949 1009.1C504.908 1003.14 461.742 986.523 424.213 962.78C404.307 950.186 384.466 937.633 365.02 924.341C342.575 909 321.433 892.406 299.862 875.908C261.301 846.416 230.947 807.725 205.204 766.934C167.936 707.881 134.701 644.816 114.522 577.623C103.971 542.49 92.3456 508.297 77.5819 474.671C69.2014 455.583 58.9101 437.363 50.5825 418.23Z" fill="#B1B2FF"/>
<path fill-rule="evenodd" clip-rule="evenodd" d="M400.064 134.22C391.24 145.835 382.008 157.301 371.467 167.996C368.025 171.488 364.594 174.988 361.164 178.488C334.207 205.986 307.28 233.453 275.262 257.045C240.176 282.897 201.597 306.105 162.445 325.132L160.322 326.164L160.32 326.165L160.29 326.18L160.287 326.181C133.404 339.245 106.982 352.086 80.8885 366.216C75.5836 369.088 67.1631 372.118 60.29 374.59C59.5204 374.867 58.7702 375.137 58.046 375.399C55.0447 376.484 52.4444 377.443 50.404 378.272C50.9364 382.911 51.8667 388.753 53.0554 394.662C54.7556 403.114 56.7936 410.734 58.5501 414.769C62.6084 424.094 67.1612 433.232 71.8365 442.593L72.0995 443.119C76.6584 452.247 81.3274 461.594 85.5383 471.185C100.496 505.252 112.237 539.81 122.843 575.129C142.709 641.28 175.504 703.599 212.553 762.306C238.01 802.643 267.718 840.393 305.144 869.017C308.597 871.659 312.031 874.295 315.453 876.923C333.522 890.799 351.261 904.421 369.926 917.178C389.224 930.368 408.935 942.84 428.862 955.448C465.431 978.584 507.42 994.726 550.114 1000.5C566.294 1002.69 580.042 1007.1 595.915 1013.99L596.212 1014.12L596.497 1014.27C603.069 1017.73 606.531 1020.06 608.777 1021.58C608.852 1021.4 608.93 1021.21 609.011 1021C609.184 1020.55 609.353 1020.09 609.53 1019.59C609.695 1019.13 609.867 1018.63 610.057 1018.09C610.429 1017.03 610.867 1015.78 611.362 1014.55C612.148 1012.6 613.351 1009.94 615.342 1007.59C619.03 1000.72 624.346 995.075 629.38 990.159C630.985 988.591 632.544 987.11 634.06 985.671C637.688 982.228 641.067 979.02 644.23 975.413C648.177 969.028 652.798 963.235 657.048 957.908C657.42 957.441 657.789 956.978 658.155 956.518C662.971 950.469 667.267 944.912 670.623 938.807C684.869 912.886 696.761 886.796 707.322 859.283C710.129 851.971 712.287 844.645 714.556 836.939C715.506 833.713 716.476 830.419 717.521 827.032C719.308 821.244 721.329 815.544 723.281 810.042C723.454 809.554 723.627 809.067 723.798 808.582C725.931 802.562 727.96 796.755 729.668 790.901C731.727 783.841 733.762 776.712 735.805 769.556C739.536 756.486 743.293 743.324 747.272 730.316C756.013 701.738 761.427 672.43 766.925 642.668C769.229 630.196 771.548 617.643 774.133 605.032C778.57 583.382 781.599 561.475 784.146 539.285C785.183 530.244 786.346 521.371 787.498 512.578C789.728 495.556 791.919 478.834 793.088 461.777C794.421 442.338 794.95 422.844 795.485 403.144L795.542 401.066C796.095 380.723 796.684 360.166 798.222 339.616C800.136 314.042 800.09 291.844 797.692 267.055C773.548 266.789 748.889 262.221 725.974 257.975C723.37 257.493 720.788 257.015 718.231 256.547C675.169 248.673 633.113 236.818 591.632 224.556C550.3 212.338 506.439 198.273 468.057 175.871C466.65 175.05 465.231 174.225 463.804 173.394C448.889 164.718 433.004 155.477 418.961 144.198C417.469 142.999 415.866 141.476 414.468 140.138C414.292 139.97 414.117 139.802 413.942 139.636C412.629 138.378 411.366 137.169 410.069 136.015C408.6 134.709 407.296 133.664 406.156 132.92C405.599 132.556 405.153 132.312 404.815 132.156C404.503 132.013 404.356 131.978 404.356 131.978L403.532 131.813C403.316 131.902 403.027 132.037 402.672 132.239C401.988 132.628 401.305 133.123 400.742 133.597C400.468 133.828 400.26 134.023 400.127 134.156C400.101 134.182 400.08 134.203 400.064 134.22ZM49.9595 373.249C49.9595 373.249 49.9595 373.25 49.9596 373.251ZM408.668 115.163C402.585 112.946 396.822 115.592 394.073 117.156C390.809 119.012 387.824 121.618 386.316 123.604C377.631 135.04 368.893 145.867 359.085 155.818C355.613 159.341 352.172 162.85 348.75 166.34C321.681 193.943 295.768 220.367 264.948 243.075C230.733 268.286 193.065 290.949 154.843 309.523L152.786 310.523L152.752 310.54L152.721 310.555L152.719 310.556L152.635 310.597C125.823 323.626 99.0758 336.623 72.6079 350.955C68.5477 353.154 61.4484 355.715 54.1398 358.352C53.4714 358.593 52.8012 358.835 52.1315 359.077C48.3851 360.432 44.6346 361.812 41.8071 363.057C40.4397 363.66 38.9014 364.396 37.5969 365.246C36.9716 365.653 36.0005 366.34 35.1005 367.334C34.3697 368.141 32.4163 370.537 32.6073 374.161M408.668 115.163C411.385 115.859 413.771 117.155 415.665 118.392C417.83 119.806 419.86 121.483 421.623 123.05C423.177 124.432 424.685 125.877 425.975 127.113C426.149 127.279 426.318 127.442 426.484 127.6C427.982 129.032 429.043 130.023 429.85 130.67C442.82 141.088 457.58 149.68 472.699 158.481C474.071 159.28 475.446 160.08 476.823 160.884C513.205 182.119 555.241 195.696 596.563 207.912C637.986 220.157 679.28 231.779 721.36 239.473C723.916 239.94 726.474 240.413 729.031 240.886C752.899 245.299 776.751 249.709 799.896 249.709C800.014 249.709 800.149 249.7 800.684 249.664L800.939 249.646C801.498 249.608 802.526 249.539 803.625 249.594C805.619 249.694 810.781 250.391 813.415 255.652L814.107 257.036L814.279 258.575C817.466 287.228 817.705 312.124 815.55 340.91C814.047 360.99 813.466 381.152 812.911 401.537L812.851 403.741C812.319 423.344 811.781 443.158 810.424 462.963C809.219 480.525 806.906 498.208 804.634 515.572C803.501 524.233 802.378 532.815 801.409 541.262C798.835 563.686 795.738 586.156 791.156 608.513C788.72 620.4 786.478 632.533 784.215 644.779C778.639 674.951 772.936 705.812 763.89 735.388C759.952 748.262 756.281 761.122 752.585 774.072C750.531 781.267 748.47 788.489 746.35 795.756C744.489 802.138 742.306 808.369 740.179 814.373C740.012 814.844 739.846 815.313 739.68 815.781C737.706 821.348 735.802 826.718 734.126 832.147C733.227 835.062 732.338 838.08 731.431 841.157C729.083 849.129 726.618 857.498 723.547 865.498C712.732 893.673 700.515 920.484 685.854 947.161C681.703 954.713 676.538 961.314 671.755 967.322C671.425 967.738 671.096 968.15 670.769 968.56C666.241 974.241 662.122 979.41 658.691 985.06L658.317 985.676L657.847 986.222C653.942 990.753 649.459 995.008 645.454 998.809C644.074 1000.12 642.751 1001.37 641.528 1002.57C636.434 1007.54 632.615 1011.85 630.296 1016.49L629.637 1017.8L628.579 1018.83C628.583 1018.83 628.581 1018.83 628.575 1018.84C628.523 1018.9 628.13 1019.42 627.486 1021.02C627.158 1021.84 626.84 1022.73 626.461 1023.82C626.104 1024.84 625.679 1026.07 625.217 1027.26C624.354 1029.49 622.961 1032.72 620.487 1035.34C617.594 1038.4 613.499 1040.34 608.493 1039.95L608.11 1039.92L607.731 1039.86C603.807 1039.21 601.44 1037.59 599.398 1036.2L599.058 1035.97C597.154 1034.68 594.334 1032.76 588.689 1029.78C573.955 1023.4 561.853 1019.6 547.784 1017.7C502.395 1011.56 458.053 994.463 419.565 970.112L419.52 970.084C399.651 957.513 379.694 944.887 360.114 931.504C341.017 918.451 322.838 904.49 304.773 890.616C301.373 888.005 297.977 885.397 294.58 882.799C254.884 852.439 223.884 812.807 197.854 771.563C160.367 712.162 126.692 648.353 106.2 580.117C95.7052 545.17 84.1955 511.342 69.6254 478.157C65.589 468.963 61.0852 459.946 56.4671 450.701L56.2882 450.342C51.6408 441.038 46.8842 431.5 42.6149 421.69C40.0731 415.85 37.7502 406.684 36.0197 398.082C34.2654 389.36 32.9276 380.237 32.6074 374.163" fill="black"/>
<path d="M455.171 358.533C457.966 358.939 460.125 359.008 463.632 359.796C468.813 361.011 475.079 363.024 479.607 365.966C486.01 370.126 490.501 376.321 494.269 382.847C501.168 394.798 505.38 407.462 507.459 421.078C509.714 435.844 509.611 451.334 502.11 464.641C499.76 468.809 496.398 473.296 492.712 476.361C488.405 479.943 483.463 482.577 478.306 484.716C472.622 487.074 466.802 489.13 460.763 490.351C453.735 491.773 446.68 492.467 439.512 492.793C431.435 493.159 423.305 492.926 415.222 492.926C408.996 492.926 402.868 492.694 396.67 492.1C386.44 491.12 375.523 488.437 366.471 483.429C358.957 479.272 352.725 472.476 347.943 465.455C345.388 461.705 343.219 457.788 341.743 453.48C339.711 447.553 337.991 441.333 337.463 435.069C336.615 424.997 337.816 413.75 341.317 404.27C343.122 399.383 344.825 394.6 347.748 390.255C350.797 385.723 354.256 382.137 358.483 378.718C367.7 371.264 379.63 368.307 390.785 365.091C399.776 362.5 409.15 361.228 418.407 360.015C425.616 359.07 432.922 357.951 440.205 357.841C445.153 357.767 450.261 357.821 455.171 358.533Z" fill="white"/>
<path fill-rule="evenodd" clip-rule="evenodd" d="M440.074 349.163C445.112 349.087 450.792 349.128 456.419 349.944C456.906 350.015 457.499 350.084 458.178 350.163C460.084 350.384 462.672 350.684 465.54 351.329L465.578 351.338L465.617 351.347C471.112 352.635 478.546 354.923 484.344 358.69C492.467 363.968 497.792 371.578 501.795 378.511C509.281 391.477 513.821 405.184 516.048 419.77C518.411 435.242 518.598 453.079 509.68 468.9C506.988 473.676 503.004 479.095 498.271 483.031C493.072 487.354 487.284 490.39 481.638 492.732C475.693 495.198 469.297 497.48 462.488 498.858C454.893 500.394 447.368 501.124 439.906 501.463C433.839 501.738 427.632 501.688 421.717 501.64C419.503 501.623 417.331 501.605 415.222 501.605C408.779 501.605 402.368 501.365 395.84 500.74C384.816 499.684 372.653 496.771 362.261 491.021C353.12 485.964 345.965 477.979 340.76 470.338C337.915 466.16 335.323 461.543 333.523 456.292C331.395 450.086 329.42 443.092 328.806 435.796C327.867 424.645 329.164 412.102 333.166 401.266C333.269 400.987 333.374 400.703 333.48 400.415C335.131 395.925 337.14 390.464 340.537 385.414C344.146 380.051 348.231 375.842 353.017 371.972C362.93 363.955 375.395 360.43 385.453 357.585C386.453 357.302 387.429 357.026 388.377 356.753C398.089 353.953 408.094 352.613 417.277 351.41C418.226 351.285 419.195 351.155 420.181 351.022C426.379 350.189 433.24 349.266 440.074 349.163ZM453.922 367.122C449.729 366.514 445.194 366.446 440.336 366.519C434.618 366.605 428.892 367.371 422.629 368.209C421.613 368.345 420.583 368.483 419.537 368.62C410.207 369.843 401.462 371.047 393.194 373.43C392.359 373.671 391.534 373.907 390.718 374.141C379.978 377.216 370.953 379.8 363.95 385.463C360.28 388.431 357.449 391.396 354.959 395.096C352.756 398.372 351.398 402.048 349.538 407.085L349.468 407.274C346.468 415.399 345.364 425.349 346.121 434.342C346.561 439.574 348.026 445.02 349.962 450.668C351.115 454.032 352.862 457.249 355.126 460.572C359.486 466.973 364.794 472.58 370.68 475.837C378.393 480.104 388.064 482.557 397.499 483.461C403.368 484.023 409.213 484.247 415.222 484.247C417.641 484.247 419.997 484.266 422.312 484.285C428.056 484.331 433.547 484.375 439.117 484.122C445.991 483.81 452.577 483.152 459.038 481.845C464.308 480.779 469.55 478.951 474.974 476.701C479.643 474.764 483.738 472.531 487.154 469.69C489.792 467.497 492.533 463.943 494.54 460.383C500.624 449.59 501.017 436.447 498.871 422.387C496.939 409.741 493.056 398.119 486.742 387.183C483.21 381.065 479.553 376.284 474.87 373.241C471.62 371.13 466.541 369.396 461.686 368.255C459.746 367.821 458.649 367.698 457.184 367.533C456.312 367.436 455.31 367.324 453.922 367.122ZM387.667 397.103C385.877 396.441 383.859 396.361 381.908 397.01C378.202 398.244 375.712 401.051 374.651 404.273C373.698 407.167 373.995 409.978 374.632 412.101C375.693 415.631 379.412 421.717 386.746 421.717C390.861 421.717 394.463 419.586 396.373 416.069C397.929 413.203 397.929 410.252 397.674 408.333C397.402 406.288 396.678 404.139 395.465 402.261C394.452 400.693 391.989 397.672 387.667 397.103Z" fill="black"/>
<path d="M407.935 621.125C407.935 580.609 410.67 534.383 410.67 493.867C440.608 494.165 458.194 492.209 486.858 485.187C497.3 500.835 504.067 520.21 509.524 537.926C521.078 575.438 537.021 612.788 557.297 646.367C572.349 671.296 589.241 695.108 603.17 720.711C608.18 729.92 615.276 738.185 619.631 747.678C621.025 750.715 618.712 749.828 616.523 750.265C602.353 753.096 588.336 757.137 574.161 760.155C553.561 764.54 532.426 766.257 511.538 768.664C482.315 772.033 452.696 777.597 424.281 785.166C418.9 786.6 413.532 788.11 408.165 789.593C407.107 789.886 403.159 791.854 401.949 791.203C401.292 790.85 401.718 787.459 401.718 786.776C401.718 780.189 401.895 772.423 403.33 766.077C406.889 750.333 405.144 734.358 407.416 718.469C409.471 704.103 407.935 688.619 407.935 674.138V621.125Z" fill="white"/>
<path fill-rule="evenodd" clip-rule="evenodd" d="M490.706 475.309L494.086 480.373C505.289 497.159 512.354 517.603 517.828 535.374C529.205 572.313 544.879 608.997 564.736 641.884C570.224 650.974 576.148 660.191 582.149 669.528C592.026 684.898 602.112 700.59 610.804 716.567C612.763 720.168 615.072 723.608 617.646 727.441C618.048 728.039 618.456 728.647 618.871 729.267C621.825 733.685 625.036 738.627 627.529 744.061C627.974 745.031 629.106 747.584 628.625 750.647C628.33 752.524 627.46 754.401 625.927 755.907C624.52 757.288 622.994 757.922 622.023 758.227C620.505 758.703 618.919 758.759 618.617 758.769C618.596 758.77 618.581 758.771 618.573 758.771C618.302 758.785 618.166 758.795 618.115 758.798C611.282 760.166 604.445 761.832 597.43 763.565C596.859 763.706 596.286 763.848 595.713 763.99C589.256 765.587 582.636 767.224 575.972 768.643C559.185 772.217 541.969 774.076 525.329 775.874C521.02 776.339 516.749 776.8 512.534 777.286C483.719 780.607 454.516 786.094 426.519 793.552C422.556 794.608 418.615 795.702 414.625 796.81C413.324 797.171 412.018 797.533 410.705 797.896C410.637 797.923 410.469 797.988 410.152 798.115L410.087 798.141C409.576 798.346 408.806 798.654 408.002 798.938C407.21 799.216 406.042 799.595 404.783 799.816C404.146 799.928 403.247 800.043 402.216 800.007C401.248 799.973 399.586 799.79 397.83 798.845C395.092 797.373 394.024 795.013 393.683 794.162C393.263 793.111 393.102 792.172 393.029 791.647C392.879 790.559 392.886 789.517 392.902 788.896C392.919 788.196 392.965 787.529 392.996 787.094C393.017 786.789 393.027 786.645 393.03 786.598C393.033 780.074 393.197 771.502 394.855 764.165C396.442 757.144 396.882 749.915 397.173 742.008C397.212 740.952 397.249 739.88 397.285 738.794C397.516 731.97 397.765 724.59 398.816 717.242C400.149 707.917 399.854 698.483 399.538 688.395C399.395 683.796 399.246 679.061 399.246 674.138V621.125C399.246 600.73 399.934 578.932 400.616 557.302L400.618 557.223C401.303 535.507 401.982 513.963 401.982 493.867V485.1L410.756 485.188C439.994 485.479 456.855 483.6 484.788 476.758L490.706 475.309ZM419.319 502.564C419.164 520.399 418.574 539.107 417.988 557.69L417.986 557.769C417.301 579.485 416.623 601.029 416.623 621.125V674.138C416.623 677.874 416.747 681.923 416.877 686.15C417.207 696.904 417.573 708.816 416.017 719.696C415.11 726.04 414.893 732.384 414.657 739.262C414.619 740.376 414.58 741.503 414.538 742.646C414.244 750.635 413.776 759.266 411.805 767.989C411.02 771.462 410.663 775.616 410.51 779.936C414.326 778.877 418.188 777.807 422.042 776.78C450.876 769.099 480.911 763.458 510.542 760.042C515.037 759.524 519.495 759.042 523.92 758.563C540.449 756.775 556.521 755.036 572.35 751.666C578.722 750.31 585.072 748.739 591.58 747.129C592.138 746.992 592.697 746.853 593.258 746.715C597.878 745.573 602.577 744.422 607.324 743.353C606.414 741.91 605.443 740.437 604.422 738.909C604.045 738.345 603.659 737.772 603.267 737.189C600.725 733.407 597.915 729.227 595.536 724.856C587.048 709.253 577.69 694.714 568.139 679.875C562.066 670.439 555.914 660.881 549.857 650.85C529.164 616.578 512.95 578.563 501.22 540.479C496.397 524.82 490.765 508.655 482.802 495.079C459.618 500.455 442.919 502.412 419.319 502.564Z" fill="black"/>
<path d="M489.531 375.031C487.526 373.028 538.101 363.217 561.874 363.217C575.836 363.217 589.756 363.182 603.705 363.782C627.655 364.812 651.605 364.619 675.504 366.937C685.001 367.858 693.674 369.766 701.799 374.735C708.483 378.823 714.297 383.931 719.363 389.947C725.254 396.943 728.065 404.293 730.457 412.983C731.622 417.216 733.025 421.916 733.025 426.322C733.025 427.597 733.228 429.066 732.999 430.323C732.883 430.96 729.98 428.733 729.635 428.528C721.353 423.616 712.355 421.328 702.8 420.268C673.7 417.038 644.806 419.215 615.775 422.063C601.4 423.474 587.296 426.62 573.148 429.477L572.825 429.542C561.959 431.736 551.146 433.919 540.535 437.198C533.575 439.349 528.302 442.901 521.61 445.798C520.444 446.303 508.244 451.139 508.912 448.469C509.239 433.538 508.412 422.053 505.623 411.082C502.709 399.617 497.652 388.715 489.531 375.031Z" fill="#F6F193"/>
<path fill-rule="evenodd" clip-rule="evenodd" d="M564.05 371.896C563.326 371.896 562.601 371.896 561.875 371.896C550.786 371.896 532.82 374.233 517.542 376.921C511.75 377.939 506.489 378.983 502.293 379.926C506.129 387.062 509.165 393.724 511.487 400.428C512.019 400.28 512.572 400.125 513.134 399.967C513.344 399.908 513.556 399.849 513.768 399.789C515.425 399.324 517.115 398.849 518.193 398.573C526.69 396.396 535.574 395.325 543.722 394.344C545.639 394.113 547.516 393.887 549.337 393.652C560.842 392.171 572.334 391.291 583.625 390.494C585.189 390.383 586.747 390.275 588.302 390.166C598.041 389.487 607.611 388.819 617.164 387.83C620.994 387.433 624.999 386.923 629.134 386.396C645.632 384.294 664.193 381.93 681.881 385.464C692.853 387.656 704.998 391.764 715.091 398.666C714.368 397.602 713.58 396.562 712.715 395.534C708.208 390.181 703.095 385.704 697.262 382.137C690.728 378.141 683.536 376.436 674.664 375.575C658.888 374.045 643.326 373.638 627.408 373.221C619.494 373.013 611.492 372.804 603.332 372.453C590.318 371.893 577.311 371.895 564.05 371.896ZM703.07 411.566C673.225 408.338 643.773 410.596 614.925 413.426C602.114 414.683 589.494 417.271 577.395 419.752C575.391 420.163 573.401 420.571 571.426 420.97C571.426 420.97 571.426 420.97 571.426 420.97L570.905 421.075C560.17 423.243 548.997 425.498 537.968 428.907C533.794 430.197 530.228 431.878 527.07 433.464C526.218 433.892 525.414 434.303 524.639 434.699C522.41 435.837 520.414 436.857 518.156 437.835C518.162 437.832 518.149 437.838 518.115 437.852C518.086 437.864 518.044 437.881 517.984 437.905C517.889 437.944 517.767 437.993 517.622 438.051C517.469 430.589 516.914 423.786 515.799 417.246C516.481 417.058 517.171 416.864 517.833 416.679C518.037 416.621 518.238 416.565 518.435 416.51C520.167 416.023 521.642 415.609 522.51 415.387C529.795 413.52 537.25 412.617 545.297 411.642C547.343 411.395 549.428 411.142 551.558 410.868C562.523 409.456 573.58 408.604 584.85 407.809C586.387 407.7 587.929 407.593 589.475 407.485C599.197 406.807 609.089 406.118 618.956 405.095C623.698 404.604 628.317 404.024 632.834 403.457C648.988 401.429 663.851 399.563 678.473 402.485C687.163 404.221 695.921 407.211 703.07 411.566ZM493.876 382.18C493.875 382.179 493.893 382.171 493.935 382.153C493.898 382.171 493.877 382.18 493.876 382.18ZM564.152 354.538C577.323 354.536 590.678 354.534 604.079 355.111C611.61 355.435 619.291 355.637 627.053 355.842C643.333 356.272 659.972 356.711 676.343 358.299C686.465 359.28 696.62 361.392 706.335 367.333C713.872 371.943 720.387 377.68 726.012 384.36C733.076 392.75 736.304 401.493 738.834 410.681C738.926 411.016 739.025 411.369 739.128 411.738C740.185 415.523 741.713 420.99 741.713 426.322C741.713 426.576 741.719 426.696 741.731 426.903C741.743 427.114 741.761 427.417 741.781 428.048C741.808 428.88 741.832 430.311 741.547 431.876C741.185 433.866 740.048 436.099 737.793 437.613C735.802 438.95 733.829 439.121 732.8 439.116C730.945 439.109 729.516 438.512 729.144 438.357L729.127 438.35C728.077 437.912 727.146 437.325 726.706 437.042C726.147 436.684 725.62 436.315 725.276 436.072C725.126 435.966 725.024 435.895 724.959 435.849C718.143 431.864 710.534 429.859 701.841 428.894C673.721 425.773 645.617 427.856 616.624 430.701C604.793 431.862 593.167 434.243 581.024 436.729C578.988 437.146 576.937 437.566 574.869 437.984L574.546 438.049C574.546 438.049 574.546 438.049 574.546 438.049C563.61 440.257 553.227 442.361 543.103 445.49C540.316 446.351 537.766 447.521 534.875 448.973C534.249 449.287 533.589 449.624 532.899 449.977C530.561 451.173 527.882 452.542 525.065 453.762C524.235 454.121 520.575 455.58 517.084 456.633C515.465 457.121 513.207 457.735 511.146 457.9C510.406 457.959 508.065 458.141 505.65 457.055C504.196 456.4 502.255 455.067 501.086 452.612C500.261 450.878 500.115 449.203 500.236 447.841C500.527 433.537 499.697 423.032 497.202 413.218C494.589 402.936 490.017 392.899 482.208 379.709C481.629 378.818 481.136 377.711 480.91 376.386C480.538 374.199 481.05 372.324 481.681 371.027C482.743 368.842 484.413 367.701 484.844 367.407L484.846 367.405C486.045 366.586 487.349 366.078 488.059 365.814C489.77 365.178 492.059 364.537 494.547 363.918C499.643 362.651 506.734 361.197 514.529 359.826C529.981 357.107 549.19 354.538 561.875 354.538C562.633 354.538 563.392 354.538 564.152 354.538Z" fill="black"/>
</svg>
